# xmcd
#
# Track frame offsets:
#   150
#   19923
#   35492
#   52808
#   70373
#   87970
#   105583
#   123565
#   142697
#   164581
#   181735
#   198557
#   218584
#   236388
#   252987
#
# Disc length: 3690 seconds
#
# Revision: 0
# Processed by: cddbd v1.5.2PL0 Copyright (c) Steve Scherf et al.
# Submitted via: GXTranscoder 2.24.2980
#
DISCID=c90e680f
DTITLE=Leona Lewis - Spirit
DYEAR=2008
DGENRE=Blues
TTITLE0=Bleeding Love
TTITLE1=Whatever It Takes
TTITLE2=Homeless
TTITLE3=Better In Time (Single Mix)
TTITLE4=Yesterday
TTITLE5=Take A Bow
TTITLE6=I Will Be
TTITLE7=Angel
TTITLE8=Here I Am
TTITLE9=I'm You
TTITLE10=The Best You Never Had
TTITLE11=The First Time Ever I Saw Your Face
TTITLE12=Footprints In The Sand (Single Mix)
TTITLE13=Forgive Me
TTITLE14=Run
EXTD=
EXTT0=
EXTT1=
EXTT2=
EXTT3=
EXTT4=
EXTT5=
EXTT6=
EXTT7=
EXTT8=
EXTT9=
EXTT10=
EXTT11=
EXTT12=
EXTT13=
EXTT14=
PLAYORDER=
